<svg xmlns="http://www.w3.org/2000/svg" viewBox="-167.08 -234.50 334.16 279.00" aria-hidden="true">
  <title>Pier footing - isometric dimensions</title>
<path d="M 0.00 0.00 L -64.09 -37.00 L -64.09 -153.00 L 0.00 -116.00 Z" fill="#ffffff" stroke="#18181b" stroke-width="2.25" stroke-linejoin="round" stroke-linecap="round"/>
<path d="M 0.00 0.00 L 64.09 -37.00 L 64.09 -153.00 L 0.00 -116.00 Z" fill="#ffffff" stroke="#18181b" stroke-width="2.25" stroke-linejoin="round" stroke-linecap="round"/>
<path d="M 0.00 -116.00 L -64.09 -153.00 L 0.00 -190.00 L 64.09 -153.00 Z" fill="#ffffff" stroke="#18181b" stroke-width="2.25" stroke-linejoin="round" stroke-linecap="round"/>
<g class="dim">
<line x1="-71.01" y1="-149.00" x2="-95.26" y2="-135.00" stroke="#18181b" stroke-width="0.9" stroke-linecap="round" opacity="0.35"/>
<line x1="-71.01" y1="-33.00" x2="-95.26" y2="-19.00" stroke="#18181b" stroke-width="0.9" stroke-linecap="round" opacity="0.35"/>
<line x1="-95.26" y1="-135.00" x2="-95.26" y2="-19.00" stroke="#18181b" stroke-width="1.2" stroke-linecap="round"/>
<line x1="-98.29" y1="-133.25" x2="-92.23" y2="-136.75" stroke="#18181b" stroke-width="1.4" stroke-linecap="round"/>
<line x1="-98.29" y1="-17.25" x2="-92.23" y2="-20.75" stroke="#18181b" stroke-width="1.4" stroke-linecap="round"/>
<text x="-117.78" text-anchor="middle" dominant-baseline="middle" font-family="system-ui,sans-serif" font-size="14" font-weight="600" fill="#18181b" y="-77.00">Depth</text>
</g>
<g class="dim">
<line x1="71.01" y1="-157.00" x2="95.26" y2="-171.00" stroke="#18181b" stroke-width="0.9" stroke-linecap="round" opacity="0.35"/>
<line x1="6.93" y1="-194.00" x2="31.18" y2="-208.00" stroke="#18181b" stroke-width="0.9" stroke-linecap="round" opacity="0.35"/>
<line x1="95.26" y1="-171.00" x2="31.18" y2="-208.00" stroke="#18181b" stroke-width="1.2" stroke-linecap="round"/>
<line x1="92.23" y1="-169.25" x2="98.29" y2="-172.75" stroke="#18181b" stroke-width="1.4" stroke-linecap="round"/>
<line x1="28.15" y1="-206.25" x2="34.21" y2="-209.75" stroke="#18181b" stroke-width="1.4" stroke-linecap="round"/>
<text x="85.74" text-anchor="middle" dominant-baseline="middle" font-family="system-ui,sans-serif" font-size="14" font-weight="600" fill="#18181b" y="-202.50">Length</text>
</g>
<g class="dim">
<line x1="-71.01" y1="-157.00" x2="-95.26" y2="-171.00" stroke="#18181b" stroke-width="0.9" stroke-linecap="round" opacity="0.35"/>
<line x1="-6.93" y1="-194.00" x2="-31.18" y2="-208.00" stroke="#18181b" stroke-width="0.9" stroke-linecap="round" opacity="0.35"/>
<line x1="-95.26" y1="-171.00" x2="-31.18" y2="-208.00" stroke="#18181b" stroke-width="1.2" stroke-linecap="round"/>
<line x1="-92.23" y1="-169.25" x2="-98.29" y2="-172.75" stroke="#18181b" stroke-width="1.4" stroke-linecap="round"/>
<line x1="-28.15" y1="-206.25" x2="-34.21" y2="-209.75" stroke="#18181b" stroke-width="1.4" stroke-linecap="round"/>
<text x="-84.00" text-anchor="middle" dominant-baseline="middle" font-family="system-ui,sans-serif" font-size="14" font-weight="600" fill="#18181b" y="-201.50">Width</text>
</g>
</svg>
