<svg xmlns="http://www.w3.org/2000/svg" viewBox="-280.72 -207.75 509.48 249.50" aria-hidden="true">
  <title>Slab / Pad - isometric dimensions</title>
<path d="M 0.00 0.00 L -138.56 -80.00 L -138.56 -116.00 L 0.00 -36.00 Z" fill="#ffffff" stroke="#18181b" stroke-width="2.25" stroke-linejoin="round" stroke-linecap="round"/>
<path d="M 0.00 0.00 L 86.60 -50.00 L 86.60 -86.00 L 0.00 -36.00 Z" fill="#ffffff" stroke="#18181b" stroke-width="2.25" stroke-linejoin="round" stroke-linecap="round"/>
<path d="M 0.00 -36.00 L -138.56 -116.00 L -51.96 -166.00 L 86.60 -86.00 Z" fill="#ffffff" stroke="#18181b" stroke-width="2.25" stroke-linejoin="round" stroke-linecap="round"/>
<g class="dim">
<line x1="-145.49" y1="-112.00" x2="-169.74" y2="-98.00" stroke="#18181b" stroke-width="0.9" stroke-linecap="round" opacity="0.35"/>
<line x1="-145.49" y1="-76.00" x2="-169.74" y2="-62.00" stroke="#18181b" stroke-width="0.9" stroke-linecap="round" opacity="0.35"/>
<line x1="-169.74" y1="-98.00" x2="-169.74" y2="-62.00" stroke="#18181b" stroke-width="1.2" stroke-linecap="round"/>
<line x1="-172.77" y1="-96.25" x2="-166.71" y2="-99.75" stroke="#18181b" stroke-width="1.4" stroke-linecap="round"/>
<line x1="-172.77" y1="-60.25" x2="-166.71" y2="-63.75" stroke="#18181b" stroke-width="1.4" stroke-linecap="round"/>
<text x="-209.58" text-anchor="middle" dominant-baseline="middle" font-family="system-ui,sans-serif" font-size="14" font-weight="600" fill="#18181b" y="-80.00">Thickness</text>
</g>
<g class="dim">
<line x1="93.53" y1="-90.00" x2="117.78" y2="-104.00" stroke="#18181b" stroke-width="0.9" stroke-linecap="round" opacity="0.35"/>
<line x1="-45.03" y1="-170.00" x2="-20.78" y2="-184.00" stroke="#18181b" stroke-width="0.9" stroke-linecap="round" opacity="0.35"/>
<line x1="117.78" y1="-104.00" x2="-20.78" y2="-184.00" stroke="#18181b" stroke-width="1.2" stroke-linecap="round"/>
<line x1="114.75" y1="-102.25" x2="120.81" y2="-105.75" stroke="#18181b" stroke-width="1.4" stroke-linecap="round"/>
<line x1="-23.82" y1="-182.25" x2="-17.75" y2="-185.75" stroke="#18181b" stroke-width="1.4" stroke-linecap="round"/>
<text x="71.01" text-anchor="middle" dominant-baseline="middle" font-family="system-ui,sans-serif" font-size="14" font-weight="600" fill="#18181b" y="-157.00">Length</text>
</g>
<g class="dim">
<line x1="-145.49" y1="-120.00" x2="-169.74" y2="-134.00" stroke="#18181b" stroke-width="0.9" stroke-linecap="round" opacity="0.35"/>
<line x1="-58.89" y1="-170.00" x2="-83.14" y2="-184.00" stroke="#18181b" stroke-width="0.9" stroke-linecap="round" opacity="0.35"/>
<line x1="-169.74" y1="-134.00" x2="-83.14" y2="-184.00" stroke="#18181b" stroke-width="1.2" stroke-linecap="round"/>
<line x1="-166.71" y1="-132.25" x2="-172.77" y2="-135.75" stroke="#18181b" stroke-width="1.4" stroke-linecap="round"/>
<line x1="-80.11" y1="-182.25" x2="-86.17" y2="-185.75" stroke="#18181b" stroke-width="1.4" stroke-linecap="round"/>
<text x="-147.22" text-anchor="middle" dominant-baseline="middle" font-family="system-ui,sans-serif" font-size="14" font-weight="600" fill="#18181b" y="-171.00">Width</text>
</g>
</svg>
